<!-- ?xml version="1.0" standalone="yes"? -->

<!-- svg version="1.1" viewBox="0.0 0.0 960.0 720.0" fill="none" stroke="none" stroke-linecap="square" stroke-miterlimit="10" xmlns="http://www.w3.org/2000/svg" xmlns:xlink="http://www.w3.org/1999/xlink" -->
<svg xmlns="http://www.w3.org/2000/svg" viewBox="140 90 250 210">
  <!--clipPath id="p.0">
    <path d="m0 0l960.0 0l0 720.0l-960.0 0l0 -720.0z" clip-rule="nonzero">
    </path>
  </clipPath-->
  <!--g clip-path="url(#p.0)"-->
  <g fill="#FFF">
    <!-- path fill="#FF0000" fill-opacity="0.0" d="m0 0l960.0 0l0 720.0l-960.0 0z" fill-rule="evenodd">
    </path -->
    <!-- path fill="#FF0000" fill-opacity="0.0" d="m210.70119 122.50309c-38.32373 0 -64.308014 66.08648 -52.18898 102.443565c5.934952 17.80484 27.084442 26.644424 43.490814 35.758545c41.75493 23.19577 110.29141 43.47754 143.0315 8.698151c25.01056 -26.56842 40.916656 -72.96738 26.094482 -106.30971c-4.357849 -9.8029785 -15.371521 -15.1102295 -24.160095 -21.262466c-32.382477 -22.668617 -73.34607 -46.404274 -112.10762 -38.656174c-10.462509 2.0913696 -17.904282 12.087952 -28.026245 15.461945" fill-rule="evenodd">
    </path -->
    <path stroke="#102" stroke-width="1.0" stroke-linejoin="round" stroke-linecap="butt" d="m210.70119 122.50309c-38.32373 0 -64.308014 66.08648 -52.18898 102.443565c5.934952 17.80484 27.084442 26.644424 43.490814 35.758545c41.75493 23.19577 110.29141 43.47754 143.0315 8.698151c25.01056 -26.56842 40.916656 -72.96738 26.094482 -106.30971c-4.357849 -9.8029785 -15.371521 -15.1102295 -24.160095 -21.262466c-32.382477 -22.668617 -73.34607 -46.404274 -112.10762 -38.656174c-10.462509 2.0913696 -17.904282 12.087952 -28.026245 15.461945" fill-rule="evenodd">
    </path>
    <!-- path fill="#FF0000" fill-opacity="0.0" d="m194.27034 214.31758c24.732117 15.215393 53.10933 28.992126 82.14699 28.992126c11.958649 0 26.192383 4.2759705 35.758514 -2.9002533c4.6455383 -3.4849243 4.4697876 -11.898941 9.6640625 -14.496063" fill-rule="evenodd">
    </path -->
    <path stroke="#102" stroke-width="1.0" stroke-linejoin="round" stroke-linecap="butt" d="m194.27034 214.31758c24.732117 15.215393 53.10933 28.992126 82.14699 28.992126c11.958649 0 26.192383 4.2759705 35.758514 -2.9002533c4.6455383 -3.4849243 4.4697876 -11.898941 9.6640625 -14.496063" fill-rule="evenodd">
    </path>
    <!-- path fill="#FF0000" fill-opacity="0.0" d="m225.19685 147.63255c-1.3292847 6.640991 -8.698166 11.589462 -8.698166 18.362198c0 8.577927 13.297455 17.680328 21.262466 14.496063c8.838196 -3.5333557 16.490982 -17.931427 11.595795 -26.094482c-4.9062653 -8.18158 -18.486343 -5.7979126 -28.026245 -5.7979126" fill-rule="evenodd">
    </path -->
    <path stroke="#102" stroke-width="1.0" stroke-linejoin="round" stroke-linecap="butt" d="m225.19685 147.63255c-1.3292847 6.640991 -8.698166 11.589462 -8.698166 18.362198c0 8.577927 13.297455 17.680328 21.262466 14.496063c8.838196 -3.5333557 16.490982 -17.931427 11.595795 -26.094482c-4.9062653 -8.18158 -18.486343 -5.7979126 -28.026245 -5.7979126" fill-rule="evenodd">
    </path>
    <!-- path fill="#FF0000" fill-opacity="0.0" d="m292.84818 156.3307c-10.614044 3.7905884 -21.953491 8.593323 -28.994751 17.393707c-6.5464478 8.181931 12.555969 18.19783 22.228333 22.228348c9.996002 4.1653748 18.5531 -17.407196 16.43045 -28.026245c-1.2146912 -6.076721 -13.656097 -3.1569672 -16.43045 -8.698166" fill-rule="evenodd">
    </path -->
    <path stroke="#102" stroke-width="1.0" stroke-linejoin="round" stroke-linecap="butt" d="m292.84818 156.3307c-10.614044 3.7905884 -21.953491 8.593323 -28.994751 17.393707c-6.5464478 8.181931 12.555969 18.19783 22.228333 22.228348c9.996002 4.1653748 18.5531 -17.407196 16.43045 -28.026245c-1.2146912 -6.076721 -13.656097 -3.1569672 -16.43045 -8.698166" fill-rule="evenodd">
    </path>
    <!-- path fill="#000040" fill-opacity="0.0" d="m234.86089 162.12862c-0.9658661 -0.48294067 -0.9658661 -0.48294067 -1.9317474 -0.96588135" fill-rule="evenodd">
    </path -->
    <path stroke="#102" stroke-width="1.0" stroke-linejoin="round" stroke-linecap="butt" d="m234.86089 162.12862c-0.9658661 -0.48294067 -0.9658661 -0.48294067 -1.9317474 -0.96588135" fill-rule="evenodd">
    </path>
    <!-- path fill="#000040" fill-opacity="0.0" d="m286.08224 181.45738c-0.6829834 -0.22766113 -2.2537231 0.32196045 -1.9317627 0.96588135" fill-rule="evenodd">
    </path -->
    <path stroke="#102" stroke-width="1.0" stroke-linejoin="round" stroke-linecap="butt" d="m286.08224 181.45738c-0.6829834 -0.22766113 -2.2537231 0.32196045 -1.9317627 0.96588135" fill-rule="evenodd">
    </path>
  </g>
</svg>

